<?xml version="1.0" encoding="utf-8"?>
<!-- Generator: Adobe Illustrator 22.0.1, SVG Export Plug-In . SVG Version: 6.00 Build 0)  -->
<svg version="1.1" id="Capa_1" xmlns="http://www.w3.org/2000/svg" xmlns:xlink="http://www.w3.org/1999/xlink" x="0px" y="0px"
	 viewBox="0 0 519.7 704.9" style="enable-background:new 0 0 519.7 704.9;" xml:space="preserve">
<style type="text/css">
	.st0{fill:#606060;}
</style>
<g>
	<polygon class="st0" points="464.6,411.3 464.6,390.8 447.6,390.8 447.6,412.3 426.6,412.3 426.6,430.3 382.6,430.3 382.6,412.3 
		360.6,412.3 360.6,390.3 148.6,390.3 148.6,412.3 129.6,412.3 129.6,431.3 84.1,430.8 83.6,412.3 63.1,412.3 63.1,390.3 
		48.6,390.3 48.6,410.3 8.6,410.3 8.6,589.3 28.6,589.3 28.6,648.3 28.6,649.3 48.6,649.3 48.6,669.3 88.6,669.3 88.6,649.3 
		108.6,649.3 108.6,629.3 405.6,629.3 405.6,649.3 426.6,649.3 426.6,668.3 465.6,668.3 465.6,648.3 484.6,648.3 484.6,588.3 
		504.6,588.3 504.6,411.3 	"/>
	<rect x="87.6" y="230.3" class="st0" width="59" height="61"/>
	<rect x="366.6" y="230.3" class="st0" width="59" height="61"/>
	<path class="st0" d="M46.6,369.3h20v41h20v19h41v-19h19v-41h217v41h21v19h40v-19h20v-41h18v20h41v-178h-19v-137h-22v-22h-19v18h-20
		v21h-19v21h-21v20h-258v-21h-20v-17h-19v-22h-20v-20h-20v21h-19v138h-20v178h39V369.3z M423.6,111.3h21v-20h20v41h-4h-16h-21V111.3
		z M347.6,230.3h18v-19h60v19h21v61h-21v20h-60v-20h-18V230.3z M206.6,251.3v-21h21h19v21h20v-21h19h21v21v60h-21v-60h-19v20h-20
		v-20h-19v60h-21V251.3z M147.6,211.3v19h18v61h-18v20h-60v-20h-21v-61h21v-19H147.6z M47.6,92.3h20v20h20v20h-20h-19h-1V92.3z"/>
</g>
</svg>
