<?xml version="1.0" encoding="utf-8"?>
<!-- Generator: Adobe Illustrator 22.0.1, SVG Export Plug-In . SVG Version: 6.00 Build 0)  -->
<svg version="1.0" id="Capa_1" xmlns="http://www.w3.org/2000/svg" xmlns:xlink="http://www.w3.org/1999/xlink" x="0px" y="0px"
	 viewBox="0 0 255.7 317.9" style="enable-background:new 0 0 255.7 317.9;" xml:space="preserve">
<style type="text/css">
	.st0{fill:#606060;}
</style>
<g>
	<path class="st0" d="M240.4,175.1v-10h0.2V83.8H232V21.3h-10v-10h-8.7v8.2h-9.1v9.6h-8.7v9.6h-9.6v9.1H68.2v-9.6h-9.1v-7.8h-8.7
		v-10h-9.1v-9.1h-9.1v9.6h-8.7v63h-9.1v60h-0.2v52.9h0.7v59.5H24v26.9v0.5h9.1v9.1h18.2v-9.1h9.1v-9.1H196v9.1h9.6v8.7h17.8v-9.1
		h8.7v-27.4h9.1v-80.8H240.4z M169.5,92.5h8.2v-8.7h27.4v8.7h9.6v27.8h-9.6v9.1h-27.4v-9.1h-8.2V92.5z M105.2,102.1v-9.6h9.6h8.7
		v9.6h9.1v-9.6h8.7h9.6v9.6v27.4h-9.6v-27.4h-8.7v9.1h-9.1v-9.1h-8.7v27.4h-9.6V102.1z M78.3,83.8v8.7h8.2v27.8h-8.2v9.1H50.9v-9.1
		h-9.6V92.5h9.6v-8.7H78.3z"/>
	<rect x="50.9" y="92.5" class="st0" width="26.9" height="27.8"/>
	<rect x="178.2" y="92.5" class="st0" width="26.9" height="27.8"/>
</g>
</svg>
