<?xml version="1.0" encoding="utf-8"?>
<!-- Generator: Adobe Illustrator 22.0.1, SVG Export Plug-In . SVG Version: 6.00 Build 0)  -->
<svg version="1.1" id="Capa_1" xmlns="http://www.w3.org/2000/svg" xmlns:xlink="http://www.w3.org/1999/xlink" x="0px" y="0px"
	 viewBox="0 0 255.7 317.9" style="enable-background:new 0 0 255.7 317.9;" xml:space="preserve">
<style type="text/css">
	.st0{fill:#606060;}
</style>
<g>
	<polygon class="st0" points="222.9,175.1 222.9,165.7 215.1,165.7 215.1,175.5 205.5,175.5 205.5,183.7 185.5,183.7 185.5,175.5 
		175.4,175.5 175.4,165.5 78.7,165.5 78.7,175.5 70,175.5 70,184.2 49.3,184 49.1,175.5 39.7,175.5 39.7,165.5 33.1,165.5 
		33.1,174.6 14.8,174.6 14.8,256.3 24,256.3 24,283.2 24,283.6 33.1,283.6 33.1,292.8 51.3,292.8 51.3,283.6 60.5,283.6 60.5,274.5 
		196,274.5 196,283.6 205.5,283.6 205.5,292.3 223.3,292.3 223.3,283.2 232,283.2 232,255.8 241.1,255.8 241.1,175.1 	"/>
	<rect x="50.9" y="92.5" class="st0" width="26.9" height="27.8"/>
	<rect x="178.2" y="92.5" class="st0" width="26.9" height="27.8"/>
	<path class="st0" d="M32.2,155.9h9.1v18.7h9.1v8.7h18.7v-8.7h8.7v-18.7h99v18.7h9.6v8.7h18.2v-8.7h9.1v-18.7h8.2v9.1h18.7V83.8H232
		V21.3h-10v-10h-8.7v8.2h-9.1v9.6h-8.7v9.6h-9.6v9.1H68.2v-9.6h-9.1v-7.8h-8.7v-10h-9.1v-9.1h-9.1v9.6h-8.7v63h-9.1V165h17.8V155.9z
		 M204.2,38.2h9.6v-9.1h9.1v18.7h-1.8h-7.3h-9.6V38.2z M169.5,92.5h8.2v-8.7h27.4v8.7h9.6v27.8h-9.6v9.1h-27.4v-9.1h-8.2V92.5z
		 M105.2,102.1v-9.6h9.6h8.7v9.6h9.1v-9.6h8.7h9.6v9.6v27.4h-9.6v-27.4h-8.7v9.1h-9.1v-9.1h-8.7v27.4h-9.6V102.1z M78.3,83.8v8.7
		h8.2v27.8h-8.2v9.1H50.9v-9.1h-9.6V92.5h9.6v-8.7H78.3z M32.6,29.5h9.1v9.1h9.1v9.1h-9.1h-8.7h-0.5V29.5z"/>
</g>
<rect x="14.1" y="143.8" class="st0" width="226.3" height="52.9"/>
</svg>
